<svg width="245" height="35" viewBox="0 0 245 35" fill="none" xmlns="http://www.w3.org/2000/svg">
<path d="M54.8522 15.5093L55.0836 14.1493H58.1026V13.939C58.1026 13.3609 57.9591 12.8999 57.6722 12.556C57.3854 12.2117 56.9656 12.0397 56.4134 12.0397C55.5699 12.0397 54.9552 12.4594 54.5697 13.2983L52.8673 12.8281C53.651 11.2353 54.8738 10.4386 56.5352 10.4386C57.6788 10.4386 58.551 10.7882 59.1529 11.4873C59.7544 12.1864 60.0554 13.1333 60.0554 14.3282C60.0554 15.794 59.6765 17.0163 58.9184 17.995C58.1602 18.9736 57.0919 19.4629 55.7129 19.4629C54.6722 19.4629 53.8595 19.196 53.2752 18.6623C52.6908 18.1286 52.3278 17.493 52.1866 16.7556L54.0302 16.4126C54.2274 17.3785 54.8117 17.8617 55.7837 17.8617C56.379 17.8617 56.8683 17.6519 57.2516 17.2327C57.6348 16.8131 57.865 16.2393 57.942 15.5106H54.8522V15.5093Z" fill="white"/>
<path d="M61.5202 19.2905H59.6567L63.6499 10.6158H66.0713L67.2879 19.2905H65.1728L64.4164 12.2809L61.5202 19.2905Z" fill="white"/>
<path d="M75.6508 10.6158L75.3678 12.2617H71.2449L70.9444 14.0413H74.3919L74.1283 15.6111H70.6795L70.3363 17.6449H74.5331L74.2506 19.2909H68.0068L69.4716 10.6162H75.6508V10.6158Z" fill="white"/>
<path d="M83.9943 10.6158L81.2245 13.7314L82.9242 19.2905H80.8469L79.7346 15.2576L78.0084 17.2053L77.6551 19.2905H75.7274L77.1917 10.6158H79.1256L78.4343 14.6917L78.7102 14.3426C78.8686 14.1393 79.0077 13.9682 79.1273 13.8285L81.9386 10.6158H83.9943Z" fill="white"/>
<path d="M90.9505 12.2617H88.7425L87.554 19.2905H85.5353L86.7237 12.2617H84.514L84.7903 10.6158H91.233L90.9505 12.2617Z" fill="white"/>
<path d="M93.4604 16.0369L92.9112 19.2909H90.8925L92.3568 10.6162H95.4915C96.181 10.6162 96.7332 10.6798 97.1486 10.8069C97.564 10.934 97.9226 11.2022 98.2244 11.6109C98.5263 12.0197 98.6772 12.5208 98.6772 13.1141C98.6772 13.5547 98.5839 13.9922 98.3978 14.4266C98.2117 14.8611 97.9459 15.2011 97.6009 15.4466C97.2559 15.6925 96.9383 15.8523 96.647 15.9263C96.3557 16.0003 95.9143 16.0373 95.3234 16.0373H93.4604V16.0369ZM94.1147 12.1603L93.7169 14.518H95.2275C95.7458 14.518 96.1251 14.3961 96.3649 14.1528C96.6047 13.909 96.7248 13.6095 96.7248 13.2534C96.7248 12.9822 96.6285 12.7323 96.4358 12.5034C96.243 12.2744 95.8184 12.1603 95.1628 12.1603H94.1147Z" fill="white"/>
<path d="M102.769 19.4751C101.733 19.4751 100.898 19.1298 100.267 18.439C99.6351 17.7486 99.3196 16.8353 99.3196 15.6999C99.3196 14.3274 99.6945 13.1219 100.444 12.0837C101.193 11.0459 102.189 10.5266 103.431 10.5266C104.497 10.5266 105.344 10.8761 105.971 11.5752C106.599 12.2744 106.912 13.1999 106.912 14.3526C106.912 15.7465 106.54 16.9489 105.795 17.9593C105.049 18.9696 104.041 19.4751 102.769 19.4751ZM102.801 17.8735C103.555 17.8735 104.094 17.4451 104.42 16.5884C104.745 15.7317 104.908 14.892 104.908 14.0692C104.908 12.7754 104.418 12.1285 103.437 12.1285C102.739 12.1285 102.214 12.5317 101.863 13.3374C101.512 14.1432 101.336 15.0278 101.336 15.9903C101.336 17.2458 101.825 17.8735 102.801 17.8735Z" fill="white"/>
<path d="M118.774 10.6158L117.307 19.2905H115.256L116.482 12.0328L112.937 19.2905H111.768L110.592 11.9566L109.352 19.2905H107.698L109.164 10.6158H112.237L113.017 15.9224L115.588 10.6158H118.774Z" fill="white"/>
<path d="M126.426 19.2905H124.339L124.057 17.3838H121.114L120.27 19.2905H118.371L122.548 10.6158H124.946L126.426 19.2905ZM121.784 15.8714H123.833L123.32 12.4015L121.784 15.8714Z" fill="white"/>
<path d="M127.479 19.2905L128.944 10.6158H130.871L129.685 17.6445H132.078L133.267 10.6158H135.194L134.006 17.6445H136.395L137.583 10.6158H139.518L138.044 19.2905H127.479Z" fill="white"/>
<path d="M142.166 18.5874L142.048 19.2905H140.12L141.585 10.6158H143.519L142.91 14.2068C142.797 14.8767 142.657 15.5763 142.489 16.3059C142.989 15.4875 143.449 14.8384 143.868 14.3591L146.449 11.4068L146.582 10.6162H148.516L147.045 19.2909H145.118L145.76 15.484C145.841 15.0012 145.968 14.3974 146.139 13.6726C145.818 14.2786 145.35 14.9333 144.738 15.6364L142.166 18.5874Z" fill="white"/>
<path d="M157.207 10.6158L155.742 19.2905H153.808L154.423 15.6616H151.591L150.976 19.2905H149.048L150.513 10.6158H152.447L151.87 14.0157H154.703L155.279 10.6158H157.207Z" fill="white"/>
<path d="M161.477 19.4751C160.441 19.4751 159.606 19.1298 158.975 18.439C158.343 17.7486 158.028 16.8353 158.028 15.6999C158.028 14.3274 158.402 13.1219 159.152 12.0837C159.901 11.0459 160.897 10.5266 162.139 10.5266C163.205 10.5266 164.052 10.8761 164.679 11.5752C165.307 12.2744 165.621 13.1999 165.621 14.3526C165.621 15.7465 165.248 16.9489 164.503 17.9593C163.758 18.9696 162.749 19.4751 161.477 19.4751ZM161.509 17.8735C162.263 17.8735 162.802 17.4451 163.128 16.5884C163.453 15.7317 163.616 14.892 163.616 14.0692C163.616 12.7754 163.126 12.1285 162.145 12.1285C161.447 12.1285 160.922 12.5317 160.571 13.3374C160.22 14.1432 160.044 15.0278 160.044 15.9903C160.045 17.2458 160.533 17.8735 161.509 17.8735Z" fill="white"/>
<path d="M174.305 13.8825L172.3 13.9778C172.309 13.8459 172.313 13.744 172.313 13.6718C172.313 13.2338 172.202 12.8629 171.979 12.5591C171.757 12.2552 171.42 12.1033 170.971 12.1033C170.234 12.1033 169.706 12.5408 169.387 13.4158C169.068 14.2908 168.908 15.1475 168.908 15.9864C168.908 16.6093 169.043 17.0634 169.313 17.3494C169.583 17.6354 169.93 17.7782 170.354 17.7782C171.214 17.7782 171.805 17.2445 172.127 16.1766L173.932 16.4879C173.264 18.4621 172.019 19.4494 170.199 19.4494C169.073 19.4494 168.212 19.0824 167.617 18.3476C167.022 17.6132 166.724 16.7273 166.724 15.6899C166.724 14.3056 167.112 13.0871 167.887 12.0349C168.662 10.9828 169.692 10.4569 170.976 10.4569C171.906 10.4569 172.683 10.7355 173.308 11.2927C173.934 11.8499 174.266 12.7132 174.305 13.8825Z" fill="white"/>
<path d="M181.614 12.2617H179.406L178.218 19.2905H176.199L177.387 12.2617H175.178L175.454 10.6158H181.897L181.614 12.2617Z" fill="white"/>
<path d="M184.124 16.0369L183.575 19.2909H181.556L183.021 10.6162H186.156C186.845 10.6162 187.397 10.6798 187.813 10.8069C188.228 10.934 188.587 11.2022 188.889 11.6109C189.191 12.0197 189.342 12.5208 189.342 13.1141C189.342 13.5547 189.248 13.9922 189.062 14.4266C188.876 14.8611 188.61 15.2011 188.265 15.4466C187.92 15.6925 187.603 15.8523 187.311 15.9263C187.02 16.0003 186.579 16.0373 185.988 16.0373H184.124V16.0369ZM184.778 12.1603L184.381 14.518H185.891C186.409 14.518 186.789 14.3961 187.029 14.1528C187.268 13.909 187.388 13.6095 187.388 13.2534C187.388 12.9822 187.292 12.7323 187.099 12.5034C186.907 12.2744 186.482 12.1603 185.826 12.1603H184.778Z" fill="white"/>
<path d="M193.432 19.4751C192.396 19.4751 191.562 19.1298 190.93 18.439C190.298 17.7486 189.983 16.8353 189.983 15.6999C189.983 14.3274 190.357 13.1219 191.107 12.0837C191.856 11.0459 192.852 10.5266 194.094 10.5266C195.16 10.5266 196.007 10.8761 196.634 11.5752C197.262 12.2744 197.576 13.1999 197.576 14.3526C197.576 15.7465 197.203 16.9489 196.458 17.9593C195.713 18.9696 194.704 19.4751 193.432 19.4751ZM193.465 17.8735C194.218 17.8735 194.758 17.4451 195.083 16.5884C195.409 15.7317 195.571 14.892 195.571 14.0692C195.571 12.7754 195.081 12.1285 194.1 12.1285C193.403 12.1285 192.878 12.5317 192.527 13.3374C192.175 14.1432 192 15.0278 192 15.9903C192 17.2458 192.488 17.8735 193.465 17.8735Z" fill="white"/>
<path d="M206.054 10.6158L205.771 12.2617H201.648L201.348 14.0413H204.795L204.531 15.6111H201.083L200.739 17.6449H204.936L204.654 19.2909H198.41L199.875 10.6162H206.054V10.6158Z" fill="white"/>
<path d="M214.29 10.6158L212.825 19.2905H210.89L211.506 15.6616H208.674L208.059 19.2905H206.131L207.596 10.6158H209.53L208.953 14.0157H211.785L212.362 10.6158H214.29Z" fill="white"/>
<path d="M216.874 18.5874L216.755 19.2905H214.828L216.293 10.6158H218.226L217.617 14.2068C217.505 14.8767 217.365 15.5763 217.196 16.3059C217.697 15.4875 218.157 14.8384 218.576 14.3591L221.156 11.4068L221.29 10.6162H223.224L221.753 19.2909H219.825L220.468 15.484C220.549 15.0012 220.676 14.3974 220.847 13.6726C220.526 14.2786 220.058 14.9333 219.446 15.6364L216.874 18.5874Z" fill="white"/>
<path d="M231.4 10.6158L231.117 12.2617H226.994L226.694 14.0413H230.141L229.878 15.6111H226.429L226.086 17.6449H230.282L230 19.2909H223.756L225.221 10.6162H231.4V10.6158Z" fill="white"/>
<path d="M157.607 26.0528C157.121 26.0528 156.732 25.88 156.44 25.5348C156.148 25.1896 156.002 24.7351 156.002 24.1713C156.002 23.5362 156.182 22.9633 156.543 22.4531C156.903 21.9429 157.381 21.6878 157.977 21.6878C158.449 21.6878 158.834 21.8498 159.132 22.1736C159.43 22.4975 159.579 22.942 159.579 23.5075C159.579 24.1774 159.402 24.7695 159.048 25.2827C158.694 25.796 158.214 26.0528 157.607 26.0528ZM157.606 25.6318C157.929 25.6318 158.203 25.5104 158.429 25.2675C158.656 25.0246 158.814 24.7172 158.902 24.345C158.991 23.9733 159.036 23.6581 159.036 23.3995C159.036 22.996 158.935 22.6799 158.732 22.4527C158.529 22.225 158.271 22.1114 157.956 22.1114C157.506 22.1114 157.158 22.3351 156.913 22.7831C156.668 23.231 156.546 23.7295 156.546 24.2789C156.546 24.7133 156.645 25.0476 156.843 25.281C157.042 25.5152 157.296 25.6318 157.606 25.6318Z" fill="white"/>
<path d="M164.23 22.2011H163.005L162.365 25.9671H161.849L162.485 22.2011H161.256L161.327 21.774H164.304L164.23 22.2011Z" fill="white"/>
<path d="M166.331 24.271L166.045 25.9666H165.526L166.233 21.774H167.398C167.741 21.774 168.01 21.8041 168.203 21.8646C168.397 21.9251 168.562 22.0574 168.698 22.2625C168.835 22.4671 168.904 22.6904 168.904 22.932C168.904 23.2537 168.785 23.5571 168.548 23.8427C168.311 24.1282 167.857 24.271 167.184 24.271H166.331ZM166.401 23.8566H166.98C167.34 23.8566 167.6 23.8383 167.761 23.8013C167.922 23.7643 168.062 23.6672 168.181 23.5101C168.3 23.3529 168.359 23.1644 168.359 22.9442C168.359 22.7735 168.323 22.6273 168.251 22.5049C168.179 22.3826 168.086 22.2986 167.972 22.252C167.859 22.2059 167.663 22.1828 167.385 22.1828L166.682 22.1889L166.401 23.8566Z" fill="white"/>
<path d="M172.362 24.7381H170.814L170.206 25.9666H169.726L171.807 21.774H172.39L173.129 25.9666H172.583L172.362 24.7381ZM172.303 24.3172L171.976 22.3913L171.023 24.3172H172.303Z" fill="white"/>
<path d="M178.476 23.0639L178.013 23.1775C177.966 22.77 177.849 22.4871 177.665 22.3282C177.481 22.1693 177.266 22.0901 177.022 22.0901C176.738 22.0901 176.494 22.1863 176.29 22.3787C176.085 22.5711 175.921 22.858 175.797 23.2389C175.672 23.6198 175.61 23.9759 175.61 24.3076C175.61 24.7255 175.703 25.0472 175.889 25.2736C176.074 25.5 176.32 25.6131 176.625 25.6131C177.109 25.6131 177.491 25.2845 177.771 24.6271L178.2 24.7869C177.883 25.6205 177.354 26.0371 176.613 26.0371C176.118 26.0371 175.737 25.8652 175.469 25.5213C175.201 25.1774 175.067 24.739 175.067 24.2066C175.067 23.5697 175.247 22.9877 175.608 22.4605C175.97 21.9333 176.436 21.6695 177.007 21.6695C177.376 21.6695 177.698 21.7801 177.973 22.0013C178.248 22.2224 178.415 22.5768 178.476 23.0639Z" fill="white"/>
<path d="M180.006 25.9666H179.488L181.558 21.774H182.231L182.94 25.9666H182.411L181.83 22.1976H181.783L180.006 25.9666Z" fill="white"/>
<path d="M184.8 25.9666L185.508 21.774H188.15L188.079 22.1889H185.954L185.722 23.568H187.542L187.471 23.9828H185.652L185.392 25.5217H187.685L187.611 25.9671H184.8V25.9666Z" fill="white"/>
<path d="M189.688 25.9666L190.396 21.774H191.724C192.062 21.774 192.316 21.798 192.486 21.8463C192.657 21.8946 192.808 22.0013 192.938 22.1671C193.069 22.333 193.134 22.5315 193.134 22.7631C193.134 23.2689 192.858 23.6059 192.305 23.7735C192.51 23.837 192.674 23.9541 192.796 24.1252C192.918 24.2963 192.979 24.4983 192.979 24.732C192.979 24.9449 192.934 25.1391 192.846 25.3141C192.757 25.4891 192.643 25.624 192.505 25.718C192.368 25.8125 192.231 25.8774 192.096 25.9131C191.96 25.9488 191.71 25.9666 191.346 25.9666H189.688ZM190.274 25.5522H191.192C191.555 25.5522 191.81 25.5309 191.956 25.4878C192.101 25.4447 192.223 25.3532 192.32 25.2131C192.417 25.0729 192.466 24.8953 192.466 24.6802C192.466 24.5 192.423 24.3546 192.337 24.244C192.251 24.1335 192.148 24.0616 192.028 24.029C191.908 23.9963 191.697 23.9798 191.395 23.9798H190.539L190.274 25.5522ZM190.607 23.5802H191.408C191.724 23.5802 191.958 23.5571 192.109 23.511C192.26 23.4648 192.383 23.3773 192.479 23.2485C192.574 23.1196 192.622 22.9638 192.622 22.7814C192.622 22.632 192.582 22.5067 192.504 22.4052C192.425 22.3038 192.329 22.2398 192.215 22.2133C192.101 22.1867 191.914 22.1732 191.653 22.1732L190.843 22.1793L190.607 23.5802Z" fill="white"/>
<path d="M196.593 26.0528C196.107 26.0528 195.717 25.88 195.425 25.5348C195.134 25.1896 194.988 24.7351 194.988 24.1713C194.988 23.5362 195.168 22.9633 195.528 22.4531C195.888 21.9429 196.366 21.6878 196.962 21.6878C197.434 21.6878 197.819 21.8498 198.117 22.1736C198.416 22.4975 198.564 22.942 198.564 23.5075C198.564 24.1774 198.388 24.7695 198.033 25.2827C197.68 25.796 197.199 26.0528 196.593 26.0528ZM196.591 25.6318C196.914 25.6318 197.188 25.5104 197.415 25.2675C197.641 25.0246 197.799 24.7172 197.888 24.345C197.977 23.9733 198.021 23.6581 198.021 23.3995C198.021 22.996 197.92 22.6799 197.717 22.4527C197.515 22.225 197.256 22.1114 196.942 22.1114C196.491 22.1114 196.143 22.3351 195.898 22.7831C195.653 23.231 195.531 23.7295 195.531 24.2789C195.531 24.7133 195.63 25.0476 195.828 25.281C196.027 25.5152 196.281 25.6318 196.591 25.6318Z" fill="white"/>
<path d="M200.904 25.6153L200.844 25.967H200.325L201.033 21.7744H201.552L201.136 24.2379C201.092 24.4926 201.032 24.7734 200.956 25.0794C201.21 24.7159 201.443 24.4225 201.655 24.1988L203.585 22.1802L203.653 21.774H204.169L203.461 25.9666H202.942L203.35 23.5619C203.407 23.2315 203.464 22.9533 203.523 22.7265C203.267 23.0935 203.036 23.3851 202.83 23.6011L200.904 25.6153ZM201.899 20.4715H202.24C202.251 20.7645 202.411 20.9108 202.722 20.9108C202.873 20.9108 202.999 20.8833 203.101 20.8276C203.202 20.7719 203.293 20.6535 203.374 20.4715H203.728C203.57 20.9935 203.23 21.2547 202.706 21.2547C202.422 21.2547 202.218 21.1898 202.092 21.0596C201.965 20.9299 201.901 20.7336 201.899 20.4715Z" fill="white"/>
<path d="M212.26 23.0639L211.797 23.1775C211.75 22.77 211.634 22.4871 211.449 22.3282C211.265 22.1693 211.05 22.0901 210.806 22.0901C210.522 22.0901 210.278 22.1863 210.074 22.3787C209.87 22.5711 209.706 22.858 209.581 23.2389C209.457 23.6198 209.394 23.9759 209.394 24.3076C209.394 24.7255 209.487 25.0472 209.673 25.2736C209.859 25.5 210.104 25.6131 210.41 25.6131C210.893 25.6131 211.275 25.2845 211.555 24.6271L211.984 24.7869C211.667 25.6205 211.138 26.0371 210.397 26.0371C209.903 26.0371 209.521 25.8652 209.253 25.5213C208.985 25.1774 208.851 24.739 208.851 24.2066C208.851 23.5697 209.031 22.9877 209.393 22.4605C209.754 21.9333 210.22 21.6695 210.792 21.6695C211.16 21.6695 211.482 21.7801 211.757 22.0013C212.032 22.2224 212.2 22.5768 212.26 23.0639Z" fill="white"/>
<path d="M215.43 26.0528C214.944 26.0528 214.555 25.88 214.263 25.5348C213.971 25.1896 213.825 24.7351 213.825 24.1713C213.825 23.5362 214.005 22.9633 214.365 22.4531C214.726 21.9429 215.204 21.6878 215.8 21.6878C216.271 21.6878 216.656 21.8498 216.955 22.1736C217.253 22.4975 217.402 22.942 217.402 23.5075C217.402 24.1774 217.225 24.7695 216.871 25.2827C216.517 25.796 216.036 26.0528 215.43 26.0528ZM215.429 25.6318C215.751 25.6318 216.026 25.5104 216.252 25.2675C216.478 25.0246 216.636 24.7172 216.725 24.345C216.814 23.9733 216.858 23.6581 216.858 23.3995C216.858 22.996 216.757 22.6799 216.554 22.4527C216.352 22.225 216.093 22.1114 215.779 22.1114C215.328 22.1114 214.98 22.3351 214.736 22.7831C214.491 23.231 214.368 23.7295 214.368 24.2789C214.368 24.7133 214.467 25.0476 214.666 25.281C214.864 25.5152 215.119 25.6318 215.429 25.6318Z" fill="white"/>
<path d="M220.879 23.958H220.021L219.682 25.967H219.162L219.87 21.7744H220.39L220.096 23.5131H220.944C221.075 22.9529 221.307 22.5088 221.641 22.1806C221.976 21.8524 222.377 21.6882 222.844 21.6882C223.32 21.6882 223.707 21.8528 224.004 22.1815C224.301 22.5106 224.449 22.9524 224.449 23.5079C224.449 24.18 224.271 24.7721 223.915 25.2845C223.559 25.7968 223.079 26.0528 222.474 26.0528C221.988 26.0528 221.599 25.8804 221.307 25.5361C221.015 25.1917 220.869 24.7364 220.869 24.1705C220.87 24.1065 220.873 24.0359 220.879 23.958ZM222.475 25.6318C222.798 25.6318 223.072 25.5104 223.298 25.2675C223.523 25.0246 223.681 24.7185 223.771 24.3498C223.861 23.9811 223.906 23.6642 223.906 23.3999C223.906 22.9964 223.804 22.6804 223.6 22.4531C223.397 22.2254 223.138 22.1118 222.826 22.1118C222.374 22.1118 222.026 22.3356 221.781 22.7835C221.536 23.2315 221.413 23.729 221.413 24.2762C221.413 24.7151 221.512 25.0507 221.71 25.2831C221.907 25.5156 222.162 25.6318 222.475 25.6318Z" fill="white"/>
<path d="M225.968 24.8056L226.449 24.6981C226.522 25.3206 226.89 25.6318 227.553 25.6318C227.912 25.6318 228.185 25.5404 228.372 25.3572C228.56 25.1739 228.653 24.9545 228.653 24.6981C228.653 24.4669 228.577 24.2932 228.424 24.1774C228.271 24.0616 228.009 24.0037 227.638 24.0037H227.393L227.468 23.5584H227.824C228.104 23.5584 228.33 23.4831 228.501 23.3325C228.673 23.1818 228.759 22.9881 228.759 22.7504C228.759 22.5476 228.686 22.3904 228.539 22.279C228.392 22.1675 228.181 22.1114 227.909 22.1114C227.579 22.1114 227.333 22.1763 227.17 22.3064C227.006 22.4366 226.885 22.6386 226.806 22.9133L226.313 22.8519C226.434 22.4179 226.628 22.1153 226.892 21.9442C227.156 21.7731 227.501 21.6878 227.927 21.6878C228.368 21.6878 228.709 21.7784 228.951 21.9599C229.193 22.1414 229.315 22.3878 229.315 22.6991C229.315 23.2358 228.99 23.5863 228.34 23.7504C228.919 23.8261 229.209 24.1213 229.209 24.6354C229.209 25.0455 229.064 25.3837 228.773 25.6514C228.482 25.9187 228.068 26.0524 227.53 26.0524C226.565 26.0528 226.045 25.6371 225.968 24.8056Z" fill="white"/>
<path d="M44.0639 17.1173C44.0639 24.0002 38.4771 29.5924 31.5464 29.6965C30.3601 29.6986 29.7023 29.4818 28.6062 29.0478C27.8718 28.757 27.2901 28.3966 26.4136 27.7462C25.5367 27.0954 25.3176 26.6618 24.8789 26.011C24.5084 25.4621 24.0019 24.2758 23.7828 22.7574C23.6138 21.6012 23.5725 21.4105 23.5637 21.0222C23.5593 20.8294 23.5637 20.586 23.5637 20.1546C23.5637 18.6362 24.0024 18.4194 24.0024 18.4194C24.0024 18.6688 24.5748 19.5974 25.0984 20.3718C25.5609 21.0575 25.949 21.5716 26.4141 22.107C27.2536 23.0765 28.6067 24.2762 29.0454 24.493C29.6548 24.7947 30.5801 25.1438 31.238 25.1438C35.7173 25.1438 39.3505 21.5494 39.3505 17.1178C39.3505 12.6862 35.7173 9.09173 31.238 9.09173C30.9814 9.09173 30.7249 9.10261 30.475 9.12655C29.4093 8.57326 27.9577 8.22413 26.3045 8.22413C23.8884 8.22413 21.7482 8.98986 20.7155 10.0595C23.0726 6.61474 27.1969 4.4564 31.3475 4.5365C37.5434 4.65535 44.0639 9.77214 44.0639 17.1173Z" fill="white"/>
<path d="M33.8688 2.36642H31.2375V5.40324H33.8688V2.36642Z" fill="white"/>
<path d="M33.893 28.9525H31.2617V31.9893H33.893V28.9525Z" fill="white"/>
<path d="M43.8448 25.6858L40.227 29.2651L39.4662 28.5119L37.5698 26.6357L41.1876 23.0565L43.8448 25.6858Z" fill="white"/>
<path d="M43.8272 7.95249L43.0664 8.70516L41.1699 10.5792L37.5521 7L40.2094 4.37326L43.8272 7.95249Z" fill="white"/>
<path d="M46.1469 14.5141H42.8583V19.7201H46.1469V14.5141Z" fill="white"/>
<path d="M28.6062 10.6097C27.7909 11.6828 26.0295 12.9287 25.098 13.8633C24.3038 14.6608 22.6071 15.9711 22.1257 16.9846C21.8239 17.6197 21.6694 18.5892 21.5898 19.2866C21.5308 19.8016 21.702 21.3822 21.8089 21.8898C21.9611 22.6107 22.3444 23.8383 22.6858 24.493C23.1254 25.3363 24.6593 27.7466 24.6593 27.7466C24.6593 27.7466 22.707 26.6287 22.1257 26.1608C21.6707 25.7947 20.8325 24.9662 20.4932 24.4926C20.2099 24.0969 19.6163 23.191 19.3972 22.7574C19.123 22.215 18.6795 21.1737 18.5202 20.5882C18.2919 19.7489 18.2003 17.981 18.3011 17.1174C18.3667 16.5549 18.7055 15.4557 18.9589 14.9481C19.2357 14.3935 20.0594 13.2234 20.4937 12.7789C21.089 12.1699 22.3849 11.2531 23.125 10.8265C23.5148 10.6019 24.3755 10.3093 24.8058 10.1757C25.2542 10.0364 27.0411 9.7717 27.5102 9.74167C28.1689 9.69944 29.2641 9.74167 29.2641 9.74167C29.2641 9.74167 28.6802 10.5126 28.6062 10.6097Z" fill="white"/>
<path d="M29.5593 19.0672H34.81C34.953 19.0672 35.0692 18.9522 35.0692 18.8108V15.0139C35.0692 14.8724 34.953 14.7575 34.81 14.7575H29.5593C28.7629 14.7575 28.1169 15.3965 28.1169 16.1845V17.6402C28.1169 18.4281 28.7629 19.0672 29.5593 19.0672Z" stroke="white" stroke-miterlimit="10"/>
<path d="M29.4013 17.1082H32.4652C32.5668 17.1082 32.6495 17.0268 32.6495 16.9258V16.8984C32.6495 16.7978 32.5672 16.716 32.4652 16.716H29.4013C29.2997 16.716 29.217 16.7974 29.217 16.8984V16.9258C29.217 17.0268 29.2993 17.1082 29.4013 17.1082Z" fill="white"/>
<path d="M29.4013 16.4117H32.4652C32.5668 16.4117 32.6495 16.3303 32.6495 16.2293V16.2019C32.6495 16.1013 32.5672 16.0195 32.4652 16.0195H29.4013C29.2997 16.0195 29.217 16.1009 29.217 16.2019V16.2293C29.217 16.3303 29.2993 16.4117 29.4013 16.4117Z" fill="white"/>
<path d="M29.4013 15.7152H32.4652C32.5668 15.7152 32.6495 15.6338 32.6495 15.5328V15.5054C32.6495 15.4048 32.5672 15.323 32.4652 15.323H29.4013C29.2997 15.323 29.217 15.4044 29.217 15.5054V15.5328C29.217 15.6338 29.2993 15.7152 29.4013 15.7152Z" fill="white"/>
<path d="M29.4013 17.8047H32.4652C32.5668 17.8047 32.6495 17.7233 32.6495 17.6223V17.5949C32.6495 17.4943 32.5672 17.4125 32.4652 17.4125H29.4013C29.2997 17.4125 29.217 17.4939 29.217 17.5949V17.6223C29.217 17.7233 29.2993 17.8047 29.4013 17.8047Z" fill="white"/>
<path d="M29.4013 18.4577H32.4652C32.5668 18.4577 32.6495 18.3763 32.6495 18.2753V18.2479C32.6495 18.1473 32.5672 18.0655 32.4652 18.0655H29.4013C29.2997 18.0655 29.217 18.1469 29.217 18.2479V18.2753C29.217 18.3763 29.2993 18.4577 29.4013 18.4577Z" fill="white"/>
<path d="M28.9969 15.0622H28.8649V18.9366H28.9969V15.0622Z" fill="white"/>
<path d="M33.0891 14.9316H32.9571V18.893H33.0891V14.9316Z" fill="white"/>
<path d="M30.053 13.6256H31.6371C31.8073 13.6256 31.9451 13.7619 31.9451 13.9304V14.5494C31.9451 14.5681 31.9297 14.5833 31.9107 14.5833H29.7793C29.7604 14.5833 29.745 14.5681 29.745 14.5494V13.9304C29.745 13.7619 29.8827 13.6256 30.053 13.6256Z" fill="white"/>
<path d="M30.4147 13.5603L31.0654 13.2952C31.091 13.2848 31.1204 13.293 31.1367 13.3157L31.2894 13.5272C31.3061 13.5503 31.2894 13.5821 31.2608 13.5821H30.4186C30.4063 13.5821 30.4028 13.5651 30.4147 13.5603Z" fill="white"/>
<path d="M36.0372 15.4104H35.4211V18.3706H36.0372V15.4104Z" fill="white"/>
<path d="M36.9612 16.6729H36.1252V17.1517H36.9612V16.6729Z" fill="white"/>
<path d="M35.6632 20.1555H28.4469C28.2406 20.1555 28.0729 19.9896 28.0729 19.7854C28.0729 19.5813 28.2406 19.4154 28.4469 19.4154H35.6632C35.8696 19.4154 36.0372 19.5813 36.0372 19.7854C36.0372 19.9896 35.8696 20.1555 35.6632 20.1555Z" fill="white"/>
</svg>
